<svg width="250" height="50" viewBox="0 0 250 50" fill="none" xmlns="http://www.w3.org/2000/svg">
<path d="M98.5257 36.5282H94.8926V34.6588H104.038V36.5282H100.405V45.7507H98.4004V36.5282H98.5257ZM113.058 45.7507H106.418V34.6588H112.808V36.5282H108.298V39.27H112.307V41.1395H108.298V44.0059H112.933V45.7507H113.058ZM122.705 34.6588H124.96L121.202 40.0178L125.085 45.6261H122.83L119.949 41.5134L117.067 45.6261H114.812L118.696 40.0178L114.938 34.6588H117.193L119.949 38.6469L122.705 34.6588ZM136.486 45.7507H134.481V41.0148H129.47V45.7507H127.466V34.6588H129.47V39.1454H134.607V34.6588H136.486V45.7507ZM139.367 40.2671C139.367 38.6469 139.869 37.276 140.996 36.1543C142.124 35.0326 143.502 34.5341 145.13 34.5341C146.759 34.5341 148.137 35.0326 149.265 36.1543C150.392 37.276 150.893 38.6469 150.893 40.2671C150.893 41.8872 150.392 43.2582 149.265 44.3798C148.137 45.5015 146.759 46 145.13 46C143.502 46 142.124 45.5015 140.996 44.3798C139.869 43.2582 139.367 41.8872 139.367 40.2671ZM141.372 40.2671C141.372 41.3887 141.748 42.2611 142.374 43.0089C143.001 43.7567 144.003 44.1306 145.005 44.1306C146.133 44.1306 147.01 43.7567 147.761 43.0089C148.388 42.2611 148.764 41.3887 148.764 40.2671C148.764 39.1454 148.388 38.1484 147.636 37.5252C146.884 36.7774 146.007 36.4036 145.005 36.4036C143.878 36.4036 143.001 36.7774 142.374 37.5252C141.748 38.1484 141.372 39.1454 141.372 40.2671ZM161.918 45.7507H160.039V36.5282H156.782L156.531 38.6469C156.406 39.8932 156.28 41.0148 156.03 41.8872C155.779 42.7596 155.654 43.5074 155.403 44.0059C155.153 44.5045 154.902 45.003 154.526 45.2522C154.151 45.5015 153.9 45.7507 153.524 45.7507C153.148 45.8754 152.773 45.8754 152.271 45.7507V43.8813C152.522 43.8813 152.647 43.8813 152.898 43.8813C153.023 43.8813 153.274 43.632 153.399 43.3828C153.65 43.1335 153.775 42.7596 153.9 42.2611C154.276 41.1395 154.526 39.3947 154.777 36.9021L154.902 34.6588H161.918V45.7507ZM164.8 40.2671C164.8 38.6469 165.301 37.276 166.428 36.1543C167.556 35.0326 168.934 34.5341 170.563 34.5341C172.191 34.5341 173.569 35.0326 174.697 36.1543C175.824 37.276 176.325 38.6469 176.325 40.2671C176.325 41.8872 175.824 43.2582 174.697 44.3798C173.569 45.5015 172.191 46 170.563 46C168.934 46 167.556 45.5015 166.428 44.3798C165.301 43.2582 164.8 41.8872 164.8 40.2671ZM166.929 40.2671C166.929 41.3887 167.305 42.2611 167.932 43.0089C168.558 43.7567 169.56 44.1306 170.563 44.1306C171.69 44.1306 172.567 43.7567 173.319 43.0089C173.945 42.2611 174.321 41.3887 174.321 40.2671C174.321 39.1454 173.945 38.1484 173.193 37.5252C172.442 36.7774 171.565 36.4036 170.563 36.4036C169.435 36.4036 168.558 36.7774 167.932 37.5252C167.18 38.1484 166.929 39.1454 166.929 40.2671ZM181.211 45.7507H179.207V34.6588H185.471V36.5282H181.211V45.7507ZM190.106 45.7507H188.102V34.6588H190.106V45.7507ZM192.988 32.7893C192.988 32.5401 193.113 32.2908 193.238 32.0415C193.489 31.9169 193.74 31.7923 193.99 31.7923C194.241 31.7923 194.491 31.9169 194.742 32.0415C194.992 32.1662 194.992 32.4154 194.992 32.7893C194.992 33.1632 194.867 33.4125 194.742 33.5371C194.617 33.6617 194.366 33.7863 193.99 33.7863C193.74 33.7863 193.489 33.6617 193.238 33.5371C193.113 33.2878 192.988 33.0386 192.988 32.7893ZM196.245 45.7507H194.241V34.6588H196.245V45.7507ZM195.619 32.7893C195.619 32.5401 195.744 32.2908 195.869 32.0415C196.12 31.9169 196.37 31.7923 196.621 31.7923C196.872 31.7923 197.122 31.9169 197.373 32.0415C197.623 32.2908 197.623 32.4154 197.623 32.7893C197.623 33.1632 197.498 33.4125 197.373 33.5371C197.247 33.7863 196.997 33.7863 196.621 33.7863C196.245 33.7863 195.995 33.6617 195.869 33.5371C195.744 33.2878 195.619 33.0386 195.619 32.7893ZM211.905 43.2582L212.657 44.7537C212.281 45.1276 211.78 45.3769 211.154 45.6261C210.527 45.8754 209.776 46 209.149 46C207.395 46 206.017 45.5015 205.015 44.3798C204.013 43.3828 203.386 42.0119 203.386 40.2671C203.386 38.6469 203.887 37.276 204.89 36.1543C205.892 35.0326 207.27 34.5341 209.024 34.5341C210.402 34.5341 211.53 34.908 212.406 35.6558L211.53 37.1513C210.778 36.6528 209.901 36.4036 209.024 36.4036C208.022 36.4036 207.145 36.7774 206.393 37.4006C205.767 38.1484 205.391 39.0208 205.391 40.2671C205.391 41.3887 205.767 42.3858 206.393 43.1335C207.145 43.8813 208.022 44.2552 209.149 44.2552C210.277 44.1306 211.154 43.8813 211.905 43.2582ZM224.183 45.7507H222.304V41.0148H217.167V45.7507H215.163V34.6588H217.167V39.1454H222.304V34.6588H224.183V45.7507ZM235.082 34.6588H237.087L233.328 43.1335C232.953 44.0059 232.451 44.6291 232.076 45.1276C231.575 45.5015 231.073 45.7507 230.322 45.7507C229.57 45.7507 229.194 45.6261 228.818 45.2522L229.445 43.632C229.695 43.7567 229.946 43.8813 230.322 43.8813C230.823 43.8813 231.199 43.632 231.449 43.1335L231.575 42.7596L226.689 34.6588H228.944L232.577 40.8902L235.082 34.6588Z" fill="#535353"/>
<path d="M92.6449 15.7151L103.419 28.8012H96.5286L87.8842 17.9585V28.8012H82.4971V4.24926H87.8842V14.2196L96.1527 4.24926H102.793L92.6449 15.7151ZM202.517 9.35906H210.033V28.8012H215.421V9.35906H222.937V4.24926H202.391V9.35906H202.517ZM118.954 18.9555L126.596 28.8012H120.081L113.692 20.0772H111.688V28.8012H106.301V4.24926H106.927C108.054 4.24926 109.307 4.24926 110.685 4.24926C112.063 4.24926 113.191 4.24926 114.068 4.24926C121.585 4.24926 123.214 8.48665 123.214 12.1009C123.214 13.9703 122.712 15.5905 121.71 16.8368C120.833 17.7092 119.956 18.457 118.954 18.9555ZM112.314 9.35906C112.063 9.35906 111.938 9.35906 111.688 9.35906V14.9674H113.692C114.82 14.9674 115.822 14.7181 116.574 14.095C117.2 13.5964 117.576 12.8487 117.576 11.9763C117.576 10.73 117.2 9.23443 113.817 9.23443C113.692 9.23443 113.567 9.23443 113.316 9.23443C113.066 9.35906 112.69 9.35906 112.314 9.35906ZM193.872 4.24926L204.271 28.8012H198.508L196.127 22.819H186.982L184.601 28.8012H179.089L189.362 4.24926H193.872ZM191.492 11.727L188.986 17.7092H193.997L191.492 11.727ZM249.497 16.5875C249.497 20.2018 248.244 23.3175 245.864 25.6855C243.484 28.0534 240.352 29.2997 236.718 29.2997C233.085 29.2997 229.953 28.178 227.573 25.8101C225.193 23.4421 223.94 20.451 223.94 16.7122C223.94 13.2226 225.193 10.1068 227.573 7.73888C229.953 5.37092 233.085 4.12463 236.718 4.12463C240.352 4.12463 243.484 5.2463 245.864 7.61425C248.244 9.73294 249.497 12.8487 249.497 16.5875ZM241.98 21.9466C243.358 20.451 243.985 18.7062 243.985 16.4629C243.985 14.2196 243.358 12.4748 241.855 10.9792C240.477 9.60831 238.723 8.86054 236.718 8.86054C234.589 8.86054 232.96 9.60831 231.582 10.9792C230.204 12.3502 229.577 14.2196 229.577 16.4629C229.577 18.7062 230.204 20.451 231.582 21.822C232.96 23.3175 234.589 23.9407 236.718 23.9407C238.973 24.0653 240.602 23.4421 241.98 21.9466ZM176.082 4.24926L169.818 20.451L163.304 4.24926H157.541L167.688 28.8012H171.697L181.595 4.24926H176.082Z" fill="#535353"/>
<path d="M153.102 6.49432C151.595 4.99773 149.585 4.12472 147.45 4.12472C145.315 4.12472 143.306 4.99773 141.799 6.49432L141.422 6.86847L140.919 6.3696C139.412 4.87301 137.403 4 135.268 4C133.132 4 131.123 4.87301 129.616 6.3696C128.109 7.8662 127.229 9.86165 127.229 11.9818C127.229 14.102 128.109 16.0975 129.616 17.594L140.543 28.4443C140.794 28.6938 141.045 28.8185 141.422 28.8185C141.799 28.8185 142.05 28.6938 142.301 28.4443L153.228 17.594C154.735 16.0975 155.614 14.102 155.614 11.9818C155.614 9.86165 154.735 7.99091 153.102 6.49432Z" fill="#00B5FF"/>
<mask id="mask0_4507_381" style="mask-type:alpha" maskUnits="userSpaceOnUse" x="127" y="4" width="29" height="25">
<path d="M153.102 6.49432C151.595 4.99773 149.585 4.12472 147.45 4.12472C145.315 4.12472 143.306 4.99773 141.799 6.49432L141.422 6.86847L140.919 6.3696C139.412 4.87301 137.403 4 135.268 4C133.132 4 131.123 4.87301 129.616 6.3696C128.109 7.8662 127.229 9.86165 127.229 11.9818C127.229 14.102 128.109 16.0975 129.616 17.594L140.543 28.4443C140.794 28.6938 141.045 28.8185 141.422 28.8185C141.799 28.8185 142.05 28.6938 142.301 28.4443L153.228 17.594C154.735 16.0975 155.614 14.102 155.614 11.9818C155.614 9.86165 154.735 7.99091 153.102 6.49432Z" fill="#00B5FF"/>
</mask>
<g mask="url(#mask0_4507_381)">
<rect x="126.294" y="14.3227" width="30.0675" height="15.0844" fill="#FFBC00"/>
</g>
<path d="M7.23477 18.4V44.8C7.23477 45.52 6.75246 46 6.02898 46H1.2058C0.482318 46 0 45.52 0 44.8V18.4C0 17.68 0.482318 17.2 1.2058 17.2H6.02898C6.75246 17.2 7.23477 17.8 7.23477 18.4ZM72.7942 17.2H67.971C67.2476 17.2 66.7652 17.68 66.7652 18.4V44.8C66.7652 45.52 67.2476 46 67.971 46H72.7942C73.5177 46 74 45.52 74 44.8V18.4C74 17.8 73.5177 17.2 72.7942 17.2Z" fill="#FFBC57"/>
<path d="M64.3538 25.6V32.8C64.3538 33.52 63.8714 34 63.148 34H10.8523C10.1288 34 9.64648 33.52 9.64648 32.8V25.6C9.64648 24.88 10.1288 24.4 10.8523 24.4H63.148C63.8714 24.4 64.3538 24.88 64.3538 25.6ZM10.8523 22H25.0687C25.7922 22 26.2745 21.52 26.2745 20.8V5.2C26.2745 4.48 25.7922 4 25.0687 4H10.8523C10.1288 4 9.64648 4.48 9.64648 5.2V20.8C9.64648 21.52 10.1288 22 10.8523 22ZM29.8919 22H44.1083C44.8318 22 45.3141 21.52 45.3141 20.8V5.2C45.3141 4.48 44.8318 4 44.1083 4H29.8919C29.1684 4 28.6861 4.48 28.6861 5.2V20.8C28.6861 21.52 29.1684 22 29.8919 22ZM63.148 4H48.9315C48.208 4 47.7257 4.48 47.7257 5.2V20.8C47.7257 21.52 48.208 22 48.9315 22H63.148C63.8714 22 64.3538 21.52 64.3538 20.8V5.2C64.3538 4.48 63.8714 4 63.148 4ZM63.148 36.4H10.8523C10.1288 36.4 9.64648 36.88 9.64648 37.6V44.8C9.64648 45.52 10.1288 46 10.8523 46H17.8339C18.5574 46 19.0397 45.52 19.0397 44.8V43.6H54.9605V44.8C54.9605 45.52 55.4428 46 56.1663 46H63.148C63.8714 46 64.3538 45.52 64.3538 44.8V37.6C64.3538 36.88 63.8714 36.4 63.148 36.4Z" fill="#FFBC57"/>
</svg>
