<svg width="250" height="42" viewBox="0 0 250 42" fill="none" xmlns="http://www.w3.org/2000/svg">
<path d="M98.5259 32.5284H94.8927V30.6589H104.038V32.5284H100.405V41.7509H98.4006V32.5284H98.5259ZM113.058 41.7509H106.419V30.6589H112.808V32.5284H108.298V35.2702H112.307V37.1397H108.298V40.0061H112.933V41.7509H113.058ZM122.705 30.6589H124.96L121.202 36.018L125.086 41.6263H122.83L119.949 37.5136L117.067 41.6263H114.812L118.696 36.018L114.938 30.6589H117.193L119.949 34.6471L122.705 30.6589ZM136.486 41.7509H134.482V37.015H129.47V41.7509H127.466V30.6589H129.47V35.1456H134.607V30.6589H136.486V41.7509ZM139.368 36.2673C139.368 34.6471 139.869 33.2762 140.996 32.1545C142.124 31.0328 143.502 30.5343 145.131 30.5343C146.759 30.5343 148.137 31.0328 149.265 32.1545C150.392 33.2762 150.893 34.6471 150.893 36.2673C150.893 37.8874 150.392 39.2584 149.265 40.38C148.137 41.5017 146.759 42.0002 145.131 42.0002C143.502 42.0002 142.124 41.5017 140.996 40.38C139.869 39.2584 139.368 37.8874 139.368 36.2673ZM141.372 36.2673C141.372 37.3889 141.748 38.2613 142.374 39.0091C143.001 39.7569 144.003 40.1308 145.005 40.1308C146.133 40.1308 147.01 39.7569 147.761 39.0091C148.388 38.2613 148.764 37.3889 148.764 36.2673C148.764 35.1456 148.388 34.1486 147.636 33.5254C146.884 32.7776 146.007 32.4038 145.005 32.4038C143.878 32.4038 143.001 32.7776 142.374 33.5254C141.748 34.1486 141.372 35.1456 141.372 36.2673ZM161.918 41.7509H160.039V32.5284H156.782L156.531 34.6471C156.406 35.8934 156.281 37.015 156.03 37.8874C155.779 38.7598 155.654 39.5076 155.404 40.0061C155.153 40.5046 154.902 41.0032 154.527 41.2524C154.151 41.5017 153.9 41.7509 153.524 41.7509C153.149 41.8756 152.773 41.8756 152.272 41.7509V39.8815C152.522 39.8815 152.647 39.8815 152.898 39.8815C153.023 39.8815 153.274 39.6322 153.399 39.383C153.65 39.1337 153.775 38.7598 153.9 38.2613C154.276 37.1397 154.527 35.3949 154.777 32.9023L154.902 30.6589H161.918V41.7509ZM164.8 36.2673C164.8 34.6471 165.301 33.2762 166.428 32.1545C167.556 31.0328 168.934 30.5343 170.563 30.5343C172.191 30.5343 173.569 31.0328 174.697 32.1545C175.824 33.2762 176.326 34.6471 176.326 36.2673C176.326 37.8874 175.824 39.2584 174.697 40.38C173.569 41.5017 172.191 42.0002 170.563 42.0002C168.934 42.0002 167.556 41.5017 166.428 40.38C165.301 39.2584 164.8 37.8874 164.8 36.2673ZM166.929 36.2673C166.929 37.3889 167.305 38.2613 167.932 39.0091C168.558 39.7569 169.56 40.1308 170.563 40.1308C171.69 40.1308 172.567 39.7569 173.319 39.0091C173.945 38.2613 174.321 37.3889 174.321 36.2673C174.321 35.1456 173.945 34.1486 173.194 33.5254C172.442 32.7776 171.565 32.4038 170.563 32.4038C169.435 32.4038 168.558 32.7776 167.932 33.5254C167.18 34.1486 166.929 35.1456 166.929 36.2673ZM181.212 41.7509H179.207V30.6589H185.471V32.5284H181.212V41.7509ZM190.107 41.7509H188.102V30.6589H190.107V41.7509ZM192.988 28.7895C192.988 28.5403 193.113 28.291 193.239 28.0417C193.489 27.9171 193.74 27.7925 193.99 27.7925C194.241 27.7925 194.491 27.9171 194.742 28.0417C194.993 28.1664 194.993 28.4156 194.993 28.7895C194.993 29.1634 194.867 29.4127 194.742 29.5373C194.617 29.6619 194.366 29.7865 193.99 29.7865C193.74 29.7865 193.489 29.6619 193.239 29.5373C193.113 29.288 192.988 29.0388 192.988 28.7895ZM196.245 41.7509H194.241V30.6589H196.245V41.7509ZM195.619 28.7895C195.619 28.5403 195.744 28.291 195.869 28.0417C196.12 27.9171 196.371 27.7925 196.621 27.7925C196.872 27.7925 197.122 27.9171 197.373 28.0417C197.623 28.291 197.623 28.4156 197.623 28.7895C197.623 29.1634 197.498 29.4127 197.373 29.5373C197.248 29.7865 196.997 29.7865 196.621 29.7865C196.245 29.7865 195.995 29.6619 195.869 29.5373C195.744 29.288 195.619 29.0388 195.619 28.7895ZM211.905 39.2584L212.657 40.7539C212.281 41.1278 211.78 41.3771 211.154 41.6263C210.527 41.8756 209.776 42.0002 209.149 42.0002C207.395 42.0002 206.017 41.5017 205.015 40.38C204.013 39.383 203.386 38.0121 203.386 36.2673C203.386 34.6471 203.887 33.2762 204.89 32.1545C205.892 31.0328 207.27 30.5343 209.024 30.5343C210.402 30.5343 211.53 30.9082 212.407 31.656L211.53 33.1515C210.778 32.653 209.901 32.4038 209.024 32.4038C208.022 32.4038 207.145 32.7776 206.393 33.4008C205.767 34.1486 205.391 35.021 205.391 36.2673C205.391 37.3889 205.767 38.386 206.393 39.1337C207.145 39.8815 208.022 40.2554 209.149 40.2554C210.277 40.1308 211.154 39.8815 211.905 39.2584ZM224.183 41.7509H222.304V37.015H217.167V41.7509H215.163V30.6589H217.167V35.1456H222.304V30.6589H224.183V41.7509ZM235.083 30.6589H237.087L233.329 39.1337C232.953 40.0061 232.452 40.6293 232.076 41.1278C231.575 41.5017 231.074 41.7509 230.322 41.7509C229.57 41.7509 229.194 41.6263 228.818 41.2524L229.445 39.6322C229.695 39.7569 229.946 39.8815 230.322 39.8815C230.823 39.8815 231.199 39.6322 231.449 39.1337L231.575 38.7598L226.689 30.6589H228.944L232.577 36.8904L235.083 30.6589Z" fill="white"/>
<path d="M92.6447 11.715L103.419 24.8011H96.5285L87.884 13.9583V24.8011H82.4969V0.249141H87.884V10.2195L96.1526 0.249141H102.793L92.6447 11.715ZM202.516 5.35893H210.033V24.8011H215.42V5.35893H222.937V0.249141H202.391V5.35893H202.516ZM118.954 14.9554L126.596 24.8011H120.081L113.692 16.077H111.688V24.8011H106.3V0.249141H106.927C108.054 0.249141 109.307 0.249141 110.685 0.249141C112.063 0.249141 113.191 0.249141 114.068 0.249141C121.585 0.249141 123.213 4.48653 123.213 8.10077C123.213 9.97021 122.712 11.5904 121.71 12.8367C120.833 13.7091 119.956 14.4569 118.954 14.9554ZM112.314 5.35893C112.063 5.35893 111.938 5.35893 111.688 5.35893V10.9672H113.692C114.82 10.9672 115.822 10.718 116.573 10.0948C117.2 9.59632 117.576 8.84855 117.576 7.97614C117.576 6.72985 117.2 5.2343 113.817 5.2343C113.692 5.2343 113.567 5.2343 113.316 5.2343C113.066 5.35893 112.69 5.35893 112.314 5.35893ZM193.872 0.249141L204.27 24.8011H198.507L196.127 18.8189H186.982L184.601 24.8011H179.089L189.362 0.249141H193.872ZM191.492 7.72689L188.986 13.7091H193.997L191.492 7.72689ZM249.497 12.5874C249.497 16.2017 248.244 19.3174 245.864 21.6853C243.483 24.0533 240.351 25.2996 236.718 25.2996C233.085 25.2996 229.953 24.1779 227.573 21.81C225.192 19.442 223.94 16.4509 223.94 12.7121C223.94 9.22244 225.192 6.10671 227.573 3.73876C229.953 1.3708 233.085 0.124512 236.718 0.124512C240.351 0.124512 243.483 1.24617 245.864 3.61413C248.244 5.73282 249.497 8.84855 249.497 12.5874ZM241.98 17.9465C243.358 16.4509 243.985 14.7061 243.985 12.4628C243.985 10.2195 243.358 8.47466 241.855 6.97911C240.477 5.60819 238.723 4.86042 236.718 4.86042C234.588 4.86042 232.96 5.60819 231.582 6.97911C230.204 8.35003 229.577 10.2195 229.577 12.4628C229.577 14.7061 230.204 16.4509 231.582 17.8218C232.96 19.3174 234.588 19.9405 236.718 19.9405C238.973 20.0652 240.602 19.442 241.98 17.9465ZM176.082 0.249141L169.818 16.4509L163.303 0.249141H157.54L167.688 24.8011H171.697L181.594 0.249141H176.082Z" fill="white"/>
<path d="M153.102 2.49432C151.595 0.997728 149.585 0.124716 147.45 0.124716C145.315 0.124716 143.306 0.997728 141.799 2.49432L141.422 2.86847L140.919 2.3696C139.412 0.873012 137.403 0 135.268 0C133.132 0 131.123 0.873012 129.616 2.3696C128.109 3.8662 127.229 5.86165 127.229 7.98182C127.229 10.102 128.109 12.0975 129.616 13.594L140.543 24.4443C140.794 24.6938 141.045 24.8185 141.422 24.8185C141.799 24.8185 142.05 24.6938 142.301 24.4443L153.228 13.594C154.735 12.0975 155.614 10.102 155.614 7.98182C155.614 5.86165 154.735 3.99091 153.102 2.49432Z" fill="#00B5FF"/>
<mask id="mask0_68_364" style="mask-type:alpha" maskUnits="userSpaceOnUse" x="127" y="0" width="29" height="25">
<path d="M153.102 2.49432C151.595 0.997728 149.585 0.124716 147.45 0.124716C145.315 0.124716 143.306 0.997728 141.799 2.49432L141.422 2.86847L140.919 2.3696C139.412 0.873012 137.403 0 135.268 0C133.132 0 131.123 0.873012 129.616 2.3696C128.109 3.8662 127.229 5.86165 127.229 7.98182C127.229 10.102 128.109 12.0975 129.616 13.594L140.543 24.4443C140.794 24.6938 141.045 24.8185 141.422 24.8185C141.799 24.8185 142.05 24.6938 142.301 24.4443L153.228 13.594C154.735 12.0975 155.614 10.102 155.614 7.98182C155.614 5.86165 154.735 3.99091 153.102 2.49432Z" fill="#00B5FF"/>
</mask>
<g mask="url(#mask0_68_364)">
<rect x="126.293" y="10.3228" width="30.0675" height="15.0844" fill="#FFBC00"/>
</g>
<path d="M7.23477 14.4002V40.8002C7.23477 41.5202 6.75246 42.0002 6.02898 42.0002H1.2058C0.482318 42.0002 0 41.5202 0 40.8002V14.4002C0 13.6802 0.482318 13.2002 1.2058 13.2002H6.02898C6.75246 13.2002 7.23477 13.8002 7.23477 14.4002ZM72.7942 13.2002H67.971C67.2476 13.2002 66.7652 13.6802 66.7652 14.4002V40.8002C66.7652 41.5202 67.2476 42.0002 67.971 42.0002H72.7942C73.5177 42.0002 74 41.5202 74 40.8002V14.4002C74 13.8002 73.5177 13.2002 72.7942 13.2002Z" fill="#FFBC57"/>
<path d="M64.3536 21.6V28.8C64.3536 29.52 63.8713 30 63.1479 30H10.8522C10.1287 30 9.64636 29.52 9.64636 28.8V21.6C9.64636 20.88 10.1287 20.4 10.8522 20.4H63.1479C63.8713 20.4 64.3536 20.88 64.3536 21.6ZM10.8522 18H25.0686C25.7921 18 26.2744 17.52 26.2744 16.8V1.2C26.2744 0.48 25.7921 0 25.0686 0H10.8522C10.1287 0 9.64636 0.48 9.64636 1.2V16.8C9.64636 17.52 10.1287 18 10.8522 18ZM29.8918 18H44.1082C44.8317 18 45.314 17.52 45.314 16.8V1.2C45.314 0.48 44.8317 0 44.1082 0H29.8918C29.1683 0 28.686 0.48 28.686 1.2V16.8C28.686 17.52 29.1683 18 29.8918 18ZM63.1479 0H48.9314C48.2079 0 47.7256 0.48 47.7256 1.2V16.8C47.7256 17.52 48.2079 18 48.9314 18H63.1479C63.8713 18 64.3536 17.52 64.3536 16.8V1.2C64.3536 0.48 63.8713 0 63.1479 0ZM63.1479 32.4H10.8522C10.1287 32.4 9.64636 32.88 9.64636 33.6V40.8C9.64636 41.52 10.1287 42 10.8522 42H17.8338C18.5573 42 19.0396 41.52 19.0396 40.8V39.6H54.9604V40.8C54.9604 41.52 55.4427 42 56.1662 42H63.1479C63.8713 42 64.3536 41.52 64.3536 40.8V33.6C64.3536 32.88 63.8713 32.4 63.1479 32.4Z" fill="#FFBC57"/>
</svg>
