<svg width="24" height="24" viewBox="0 0 24 24" fill="none" xmlns="http://www.w3.org/2000/svg">
<path d="M20.9997 3.47517H15.877C15.3247 3.47517 14.877 3.92289 14.877 4.47517V9.59794C14.877 10.1502 15.3247 10.5979 15.877 10.5979H20.9997C21.552 10.5979 21.9997 10.1502 21.9997 9.59794V4.47517C21.9997 3.92289 21.552 3.47517 20.9997 3.47517Z" fill="white"/>
<path d="M11.3656 6.32945L7.74324 2.70711C7.35272 2.31658 6.71955 2.31658 6.32903 2.70711L2.70668 6.32945C2.31616 6.71998 2.31616 7.35314 2.70668 7.74366L6.32903 11.366C6.71955 11.7565 7.35271 11.7565 7.74324 11.366L11.3656 7.74366C11.7561 7.35314 11.7561 6.71998 11.3656 6.32945Z" fill="white"/>
<path d="M9.59836 14.8772H4.47559C3.9233 14.8772 3.47559 15.3249 3.47559 15.8772V21C3.47559 21.5523 3.9233 22 4.47559 22H9.59835C10.1506 22 10.5984 21.5523 10.5984 21V15.8772C10.5984 15.3249 10.1506 14.8772 9.59836 14.8772Z" fill="white"/>
<path d="M20.9997 14.8772H15.877C15.3247 14.8772 14.877 15.3249 14.877 15.8772V21C14.877 21.5523 15.3247 22 15.877 22H20.9997C21.552 22 21.9997 21.5523 21.9997 21V15.8772C21.9997 15.3249 21.552 14.8772 20.9997 14.8772Z" fill="white"/>
</svg>
